<?xml version="1.0" encoding="UTF-8" standalone="no"?>
<!DOCTYPE svg PUBLIC "-//W3C//DTD SVG 1.1//EN"
 "http://www.w3.org/Graphics/SVG/1.1/DTD/svg11.dtd">
<!-- Generated by graphviz version 7.0.6 (0)
 -->
<!-- Pages: 1 -->
<svg width="208pt" height="210pt"
 viewBox="0.00 0.00 207.60 209.60" xmlns="http://www.w3.org/2000/svg" xmlns:xlink="http://www.w3.org/1999/xlink">
<g id="graph0" class="graph" transform="scale(1 1) rotate(0) translate(4 205.6)">
<polygon fill="white" stroke="none" points="-4,4 -4,-205.6 203.6,-205.6 203.6,4 -4,4"/>
<!-- 4 -->
<g id="node1" class="node">
<title>4</title>
<ellipse fill="black" stroke="black" cx="1.8" cy="-199.8" rx="1.8" ry="1.8"/>
</g>
<!-- 3 -->
<g id="node2" class="node">
<title>3</title>
<ellipse fill="black" stroke="black" cx="1.8" cy="-160.2" rx="1.8" ry="1.8"/>
</g>
<!-- 4&#45;&#45;3 -->
<g id="edge1" class="edge">
<title>4&#45;&#45;3</title>
<path fill="none" stroke="black" d="M1.8,-197.55C1.8,-191.84 1.8,-168.29 1.8,-162.49"/>
</g>
<!-- 1 -->
<g id="node7" class="node">
<title>1</title>
<ellipse fill="black" stroke="black" cx="99.8" cy="-199.8" rx="1.8" ry="1.8"/>
</g>
<!-- 4&#45;&#45;1 -->
<g id="edge14" class="edge">
<title>4&#45;&#45;1</title>
<path fill="none" stroke="black" d="M4.1,-199.8C35.25,-199.8 66.4,-199.8 97.56,-199.8"/>
</g>
<!-- 6 -->
<g id="node3" class="node">
<title>6</title>
<ellipse fill="black" stroke="black" cx="1.8" cy="-120.6" rx="1.8" ry="1.8"/>
</g>
<!-- 3&#45;&#45;6 -->
<g id="edge2" class="edge">
<title>3&#45;&#45;6</title>
<path fill="none" stroke="black" d="M1.8,-157.95C1.8,-152.24 1.8,-128.69 1.8,-122.89"/>
</g>
<!-- 13 -->
<g id="node11" class="node">
<title>13</title>
<ellipse fill="black" stroke="black" cx="99.8" cy="-41.4" rx="1.8" ry="1.8"/>
</g>
<!-- 3&#45;&#45;13 -->
<g id="edge22" class="edge">
<title>3:e&#45;&#45;13:w</title>
<path fill="none" stroke="black" d="M4.8,-160.2C71.58,-160.2 30.02,-41.4 96.8,-41.4"/>
</g>
<!-- 7 -->
<g id="node9" class="node">
<title>7</title>
<ellipse fill="black" stroke="black" cx="99.8" cy="-120.6" rx="1.8" ry="1.8"/>
</g>
<!-- 6&#45;&#45;7 -->
<g id="edge16" class="edge">
<title>6&#45;&#45;7</title>
<path fill="none" stroke="black" d="M4.1,-120.6C35.25,-120.6 66.4,-120.6 97.56,-120.6"/>
</g>
<!-- 9 -->
<g id="node4" class="node">
<title>9</title>
<ellipse fill="black" stroke="black" cx="1.8" cy="-81" rx="1.8" ry="1.8"/>
</g>
<!-- 12 -->
<g id="node5" class="node">
<title>12</title>
<ellipse fill="black" stroke="black" cx="1.8" cy="-41.4" rx="1.8" ry="1.8"/>
</g>
<!-- 9&#45;&#45;12 -->
<g id="edge3" class="edge">
<title>9&#45;&#45;12</title>
<path fill="none" stroke="black" d="M1.8,-78.75C1.8,-73.04 1.8,-49.49 1.8,-43.69"/>
</g>
<!-- 10 -->
<g id="node10" class="node">
<title>10</title>
<ellipse fill="black" stroke="black" cx="99.8" cy="-81" rx="1.8" ry="1.8"/>
</g>
<!-- 9&#45;&#45;10 -->
<g id="edge18" class="edge">
<title>9&#45;&#45;10</title>
<path fill="none" stroke="black" d="M4.1,-81C35.25,-81 66.4,-81 97.56,-81"/>
</g>
<!-- 15 -->
<g id="node6" class="node">
<title>15</title>
<ellipse fill="black" stroke="black" cx="1.8" cy="-1.8" rx="1.8" ry="1.8"/>
</g>
<!-- 12&#45;&#45;15 -->
<g id="edge4" class="edge">
<title>12&#45;&#45;15</title>
<path fill="none" stroke="black" d="M1.8,-39.15C1.8,-33.44 1.8,-9.89 1.8,-4.09"/>
</g>
<!-- 0 -->
<g id="node8" class="node">
<title>0</title>
<ellipse fill="black" stroke="black" cx="99.8" cy="-160.2" rx="1.8" ry="1.8"/>
</g>
<!-- 12&#45;&#45;0 -->
<g id="edge24" class="edge">
<title>12:e&#45;&#45;0:w</title>
<path fill="none" stroke="black" d="M4.8,-41.4C71.58,-41.4 30.02,-160.2 96.8,-160.2"/>
</g>
<!-- 16 -->
<g id="node12" class="node">
<title>16</title>
<ellipse fill="black" stroke="black" cx="99.8" cy="-1.8" rx="1.8" ry="1.8"/>
</g>
<!-- 15&#45;&#45;16 -->
<g id="edge20" class="edge">
<title>15&#45;&#45;16</title>
<path fill="none" stroke="black" d="M4.1,-1.8C35.25,-1.8 66.4,-1.8 97.56,-1.8"/>
</g>
<!-- 1&#45;&#45;0 -->
<g id="edge5" class="edge">
<title>1&#45;&#45;0</title>
<path fill="none" stroke="black" d="M99.8,-197.55C99.8,-191.84 99.8,-168.29 99.8,-162.49"/>
</g>
<!-- 2 -->
<g id="node13" class="node">
<title>2</title>
<ellipse fill="black" stroke="black" cx="197.8" cy="-199.8" rx="1.8" ry="1.8"/>
</g>
<!-- 1&#45;&#45;2 -->
<g id="edge15" class="edge">
<title>1&#45;&#45;2</title>
<path fill="none" stroke="black" d="M102.1,-199.8C133.25,-199.8 164.4,-199.8 195.56,-199.8"/>
</g>
<!-- 0&#45;&#45;7 -->
<g id="edge6" class="edge">
<title>0&#45;&#45;7</title>
<path fill="none" stroke="black" d="M99.8,-157.95C99.8,-152.24 99.8,-128.69 99.8,-122.89"/>
</g>
<!-- 14 -->
<g id="node17" class="node">
<title>14</title>
<ellipse fill="black" stroke="black" cx="197.8" cy="-41.4" rx="1.8" ry="1.8"/>
</g>
<!-- 0&#45;&#45;14 -->
<g id="edge25" class="edge">
<title>0:e&#45;&#45;14:w</title>
<path fill="none" stroke="black" d="M102.8,-160.2C169.58,-160.2 128.02,-41.4 194.8,-41.4"/>
</g>
<!-- 7&#45;&#45;10 -->
<!-- 8 -->
<g id="node15" class="node">
<title>8</title>
<ellipse fill="black" stroke="black" cx="197.8" cy="-120.6" rx="1.8" ry="1.8"/>
</g>
<!-- 7&#45;&#45;8 -->
<g id="edge17" class="edge">
<title>7&#45;&#45;8</title>
<path fill="none" stroke="black" d="M102.1,-120.6C133.25,-120.6 164.4,-120.6 195.56,-120.6"/>
</g>
<!-- 10&#45;&#45;13 -->
<g id="edge7" class="edge">
<title>10&#45;&#45;13</title>
<path fill="none" stroke="black" d="M99.8,-78.75C99.8,-73.04 99.8,-49.49 99.8,-43.69"/>
</g>
<!-- 11 -->
<g id="node16" class="node">
<title>11</title>
<ellipse fill="black" stroke="black" cx="197.8" cy="-81" rx="1.8" ry="1.8"/>
</g>
<!-- 10&#45;&#45;11 -->
<g id="edge19" class="edge">
<title>10&#45;&#45;11</title>
<path fill="none" stroke="black" d="M102.1,-81C133.25,-81 164.4,-81 195.56,-81"/>
</g>
<!-- 13&#45;&#45;16 -->
<g id="edge8" class="edge">
<title>13&#45;&#45;16</title>
<path fill="none" stroke="black" d="M99.8,-39.15C99.8,-33.44 99.8,-9.89 99.8,-4.09"/>
</g>
<!-- 5 -->
<g id="node14" class="node">
<title>5</title>
<ellipse fill="black" stroke="black" cx="197.8" cy="-160.2" rx="1.8" ry="1.8"/>
</g>
<!-- 13&#45;&#45;5 -->
<g id="edge23" class="edge">
<title>13:e&#45;&#45;5:w</title>
<path fill="none" stroke="black" d="M102.8,-41.4C169.58,-41.4 128.02,-160.2 194.8,-160.2"/>
</g>
<!-- 17 -->
<g id="node18" class="node">
<title>17</title>
<ellipse fill="black" stroke="black" cx="197.8" cy="-1.8" rx="1.8" ry="1.8"/>
</g>
<!-- 16&#45;&#45;17 -->
<g id="edge21" class="edge">
<title>16&#45;&#45;17</title>
<path fill="none" stroke="black" d="M102.1,-1.8C133.25,-1.8 164.4,-1.8 195.56,-1.8"/>
</g>
<!-- 2&#45;&#45;5 -->
<g id="edge9" class="edge">
<title>2&#45;&#45;5</title>
<path fill="none" stroke="black" d="M197.8,-197.55C197.8,-191.84 197.8,-168.29 197.8,-162.49"/>
</g>
<!-- 5&#45;&#45;8 -->
<g id="edge10" class="edge">
<title>5&#45;&#45;8</title>
<path fill="none" stroke="black" d="M197.8,-157.95C197.8,-152.24 197.8,-128.69 197.8,-122.89"/>
</g>
<!-- 11&#45;&#45;14 -->
<g id="edge11" class="edge">
<title>11&#45;&#45;14</title>
<path fill="none" stroke="black" d="M197.8,-78.75C197.8,-73.04 197.8,-49.49 197.8,-43.69"/>
</g>
<!-- 14&#45;&#45;17 -->
<g id="edge12" class="edge">
<title>14&#45;&#45;17</title>
<path fill="none" stroke="black" d="M197.8,-39.15C197.8,-33.44 197.8,-9.89 197.8,-4.09"/>
</g>
</g>
</svg>
