<?xml version="1.0" encoding="UTF-8" standalone="no"?>
<!DOCTYPE svg PUBLIC "-//W3C//DTD SVG 1.1//EN"
 "http://www.w3.org/Graphics/SVG/1.1/DTD/svg11.dtd">
<!-- Generated by graphviz version 7.0.6 (0)
 -->
<!-- Pages: 1 -->
<svg width="92pt" height="91pt"
 viewBox="0.00 0.00 91.60 90.80" xmlns="http://www.w3.org/2000/svg" xmlns:xlink="http://www.w3.org/1999/xlink">
<g id="graph0" class="graph" transform="scale(1 1) rotate(0) translate(4 86.8)">
<polygon fill="white" stroke="none" points="-4,4 -4,-86.8 87.6,-86.8 87.6,4 -4,4"/>
<!-- 0 -->
<g id="node1" class="node">
<title>0</title>
<ellipse fill="black" stroke="black" cx="1.8" cy="-81" rx="1.8" ry="1.8"/>
</g>
<!-- 3 -->
<g id="node2" class="node">
<title>3</title>
<ellipse fill="black" stroke="black" cx="1.8" cy="-41.4" rx="1.8" ry="1.8"/>
</g>
<!-- 0&#45;&#45;3 -->
<g id="edge1" class="edge">
<title>0&#45;&#45;3</title>
<path fill="none" stroke="black" d="M1.8,-78.75C1.8,-73.04 1.8,-49.49 1.8,-43.69"/>
</g>
<!-- 1 -->
<g id="node4" class="node">
<title>1</title>
<ellipse fill="black" stroke="black" cx="41.8" cy="-81" rx="1.8" ry="1.8"/>
</g>
<!-- 0&#45;&#45;1 -->
<g id="edge7" class="edge">
<title>0&#45;&#45;1</title>
<path fill="none" stroke="black" d="M3.99,-81C15.9,-81 27.82,-81 39.73,-81"/>
</g>
<!-- 6 -->
<g id="node3" class="node">
<title>6</title>
<ellipse fill="black" stroke="black" cx="1.8" cy="-1.8" rx="1.8" ry="1.8"/>
</g>
<!-- 3&#45;&#45;6 -->
<g id="edge2" class="edge">
<title>3&#45;&#45;6</title>
<path fill="none" stroke="black" d="M1.8,-39.15C1.8,-33.44 1.8,-9.89 1.8,-4.09"/>
</g>
<!-- 4 -->
<g id="node5" class="node">
<title>4</title>
<ellipse fill="black" stroke="black" cx="41.8" cy="-41.4" rx="1.8" ry="1.8"/>
</g>
<!-- 3&#45;&#45;4 -->
<g id="edge9" class="edge">
<title>3&#45;&#45;4</title>
<path fill="none" stroke="black" d="M3.99,-41.4C15.9,-41.4 27.82,-41.4 39.73,-41.4"/>
</g>
<!-- 7 -->
<g id="node6" class="node">
<title>7</title>
<ellipse fill="black" stroke="black" cx="41.8" cy="-1.8" rx="1.8" ry="1.8"/>
</g>
<!-- 6&#45;&#45;7 -->
<g id="edge11" class="edge">
<title>6&#45;&#45;7</title>
<path fill="none" stroke="black" d="M3.99,-1.8C15.9,-1.8 27.82,-1.8 39.73,-1.8"/>
</g>
<!-- 1&#45;&#45;4 -->
<g id="edge3" class="edge">
<title>1&#45;&#45;4</title>
<path fill="none" stroke="black" d="M41.8,-78.75C41.8,-73.04 41.8,-49.49 41.8,-43.69"/>
</g>
<!-- 2 -->
<g id="node7" class="node">
<title>2</title>
<ellipse fill="black" stroke="black" cx="81.8" cy="-81" rx="1.8" ry="1.8"/>
</g>
<!-- 1&#45;&#45;2 -->
<g id="edge8" class="edge">
<title>1&#45;&#45;2</title>
<path fill="none" stroke="black" d="M43.99,-81C55.9,-81 67.82,-81 79.73,-81"/>
</g>
<!-- 4&#45;&#45;7 -->
<g id="edge4" class="edge">
<title>4&#45;&#45;7</title>
<path fill="none" stroke="black" d="M41.8,-39.15C41.8,-33.44 41.8,-9.89 41.8,-4.09"/>
</g>
<!-- 5 -->
<g id="node8" class="node">
<title>5</title>
<ellipse fill="black" stroke="black" cx="81.8" cy="-41.4" rx="1.8" ry="1.8"/>
</g>
<!-- 4&#45;&#45;5 -->
<g id="edge10" class="edge">
<title>4&#45;&#45;5</title>
<path fill="none" stroke="black" d="M43.99,-41.4C55.9,-41.4 67.82,-41.4 79.73,-41.4"/>
</g>
<!-- 8 -->
<g id="node9" class="node">
<title>8</title>
<ellipse fill="black" stroke="black" cx="81.8" cy="-1.8" rx="1.8" ry="1.8"/>
</g>
<!-- 7&#45;&#45;8 -->
<g id="edge12" class="edge">
<title>7&#45;&#45;8</title>
<path fill="none" stroke="black" d="M43.99,-1.8C55.9,-1.8 67.82,-1.8 79.73,-1.8"/>
</g>
<!-- 2&#45;&#45;5 -->
<g id="edge5" class="edge">
<title>2&#45;&#45;5</title>
<path fill="none" stroke="black" d="M81.8,-78.75C81.8,-73.04 81.8,-49.49 81.8,-43.69"/>
</g>
<!-- 5&#45;&#45;8 -->
<g id="edge6" class="edge">
<title>5&#45;&#45;8</title>
<path fill="none" stroke="black" d="M81.8,-39.15C81.8,-33.44 81.8,-9.89 81.8,-4.09"/>
</g>
</g>
</svg>
